<?xml version="1.0" standalone="no"?>
<!DOCTYPE svg PUBLIC "-//W3C//DTD SVG 20010904//EN"
 "http://www.w3.org/TR/2001/REC-SVG-20010904/DTD/svg10.dtd">
<svg version="1.0" xmlns="http://www.w3.org/2000/svg"
 width="215.000000pt" height="215.000000pt" viewBox="0 0 215.000000 215.000000"
 preserveAspectRatio="xMidYMid meet">
<metadata>
Created by potrace 1.14, written by Peter Selinger 2001-2017
</metadata>
<g transform="translate(0.000000,215.000000) scale(0.100000,-0.100000)"
fill="#000000" stroke="none">
<path d="M108 1529 c-20 -11 -23 -50 -7 -80 9 -17 5 -25 -26 -53 -19 -18 -37
-43 -40 -55 -2 -11 -6 -24 -9 -29 -4 -7 -11 -73 -21 -197 -6 -78 5 -112 24
-76 7 12 9 27 5 33 -5 8 -2 9 9 5 20 -8 20 -6 6 27 -9 19 -9 40 1 87 12 56 15
60 27 43 10 -13 12 -32 8 -59 -8 -48 -9 -101 -6 -215 2 -47 -2 -99 -7 -116 -7
-22 -6 -50 2 -90 7 -33 11 -73 9 -91 -3 -39 1 -42 58 -43 96 -2 142 12 97 29
-41 16 -50 35 -43 93 4 29 8 71 10 93 1 22 10 69 20 105 16 63 16 82 0 210
l-6 45 38 -44 c38 -44 40 -49 45 -86 4 -30 29 -41 44 -20 14 19 7 42 -24 77
-25 29 -92 181 -92 210 0 19 -9 33 -27 45 -36 23 -45 36 -30 45 7 4 14 25 15
46 4 60 -34 88 -80 61z m36 -747 c-1 -129 -2 -131 -14 -112 -12 18 -11 131 2
178 5 17 10 32 11 32 1 0 2 -44 1 -98z"/>
<path d="M370 1255 c0 -82 4 -135 10 -136 6 -1 16 -2 23 -3 8 -1 14 23 17 77
l5 79 39 -61 c25 -38 47 -61 58 -61 10 0 18 4 18 8 0 14 61 102 71 102 4 0 7
-31 6 -70 -1 -38 2 -70 6 -70 45 0 43 -8 42 133 l0 132 -28 3 c-15 2 -27 0
-26 -5 4 -24 -5 -43 -47 -96 l-45 -58 -30 33 c-16 18 -39 54 -52 80 -16 35
-28 47 -44 48 -23 0 -23 -2 -23 -135z"/>
<path d="M697 1377 c4 -7 29 -44 55 -83 39 -57 47 -78 49 -119 3 -51 12 -67
36 -58 8 3 13 23 13 57 0 46 6 60 46 117 69 97 70 99 37 99 -23 0 -34 -10 -63
-55 -19 -30 -39 -53 -45 -51 -5 1 -26 26 -45 54 -28 42 -41 52 -63 52 -21 0
-26 -4 -20 -13z"/>
<path d="M376 1081 c-2 -3 16 -48 40 -98 43 -93 66 -114 79 -73 3 11 10 20 15
20 5 0 12 -9 15 -20 12 -39 35 -20 71 58 55 118 55 118 34 119 -12 1 -27 -18
-50 -70 -27 -59 -34 -68 -42 -53 -7 13 -4 31 12 68 12 27 19 52 17 54 -10 10
-37 -10 -45 -34 l-9 -27 -16 31 c-9 17 -23 31 -31 31 -21 0 -20 -10 5 -59 16
-31 18 -46 11 -62 -9 -19 -13 -13 -42 50 -27 62 -52 87 -64 65z"/>
<path d="M673 1081 c-7 -5 -9 -102 -4 -173 1 -15 11 -18 61 -18 52 0 60 2 60
19 0 16 -7 18 -45 17 -40 -1 -45 1 -45 20 0 23 17 34 51 34 12 0 19 7 19 20 0
16 -6 20 -22 18 -13 -2 -29 -7 -35 -11 -9 -6 -13 -1 -13 17 0 24 4 26 39 26
36 0 61 14 48 26 -7 8 -105 12 -114 5z"/>
<path d="M809 1067 c-1 -24 -1 -120 0 -154 1 -22 5 -23 71 -23 62 0 70 2 70
19 0 15 -8 18 -37 18 -78 1 -75 -2 -73 56 3 83 1 95 -15 101 -10 4 -15 -1 -16
-17z"/>
<path d="M980 1081 c-13 -5 -15 -22 -14 -86 1 -44 2 -85 3 -92 1 -8 23 -11 69
-10 52 2 67 5 67 17 0 10 -11 15 -35 16 -74 3 -69 -3 -72 83 -3 65 -5 77 -18
72z"/>
<path d="M1127 1082 c-2 -4 -3 -47 -3 -97 1 -73 4 -90 16 -90 11 0 15 13 16
48 1 26 4 50 6 53 9 8 92 -60 103 -84 5 -12 17 -22 25 -22 13 0 15 16 15 95 0
52 -3 95 -7 95 -5 0 -12 0 -18 0 -5 0 -10 -25 -10 -56 l0 -56 -47 34 c-27 19
-52 44 -58 56 -10 23 -32 36 -38 24z"/>
<path d="M1329 1073 c-1 -17 -1 -149 0 -168 1 -12 15 -15 61 -15 52 0 60 3 60
19 0 15 -7 18 -42 17 -37 -1 -43 2 -46 20 -2 16 4 24 25 29 15 5 31 8 36 7 4
-1 7 7 7 18 0 23 -8 24 -44 10 -24 -9 -26 -7 -26 15 0 23 4 25 46 25 38 0 45
3 42 17 -3 15 -14 18 -61 18 -38 0 -57 -4 -58 -12z"/>
<path d="M1510 1079 c-74 -29 -43 -109 42 -109 31 0 38 -4 38 -19 0 -11 -9
-21 -22 -25 -35 -9 -45 -7 -62 10 -9 8 -24 14 -33 12 -14 -3 -13 -7 8 -31 44
-51 138 -34 144 27 4 32 -20 53 -66 59 -47 6 -60 14 -52 32 7 19 57 19 73 0
15 -19 40 -20 40 -2 0 35 -67 62 -110 46z"/>
<path d="M1690 1079 c-71 -28 -43 -109 38 -109 21 0 35 -6 39 -16 12 -31 -53
-47 -77 -19 -15 19 -40 20 -40 2 0 -20 32 -46 61 -50 39 -6 76 12 90 44 10 27
10 33 -7 49 -10 10 -36 20 -58 23 -46 6 -68 23 -46 37 22 14 56 12 70 -5 15
-19 40 -20 40 -2 0 35 -67 62 -110 46z"/>
<path d="M1947 1083 c-4 -3 -7 -48 -7 -100 0 -76 3 -93 15 -93 12 0 15 18 15
100 0 92 -5 112 -23 93z"/>
<path d="M1997 1076 c-2 -6 -3 -49 -3 -96 l1 -85 31 -3 c65 -6 118 39 116 98
-1 35 -29 77 -57 86 -33 11 -84 11 -88 0z m93 -46 c37 -37 19 -89 -37 -103
-22 -5 -23 -2 -23 59 0 57 2 64 20 64 11 0 29 -9 40 -20z"/>
<path d="M408 799 c-10 -5 -18 -21 -18 -34 0 -30 27 -46 58 -34 28 11 30 54 3
69 -23 12 -22 12 -43 -1z m40 -31 c-5 -34 -38 -37 -38 -4 0 20 5 26 21 26 15
0 20 -5 17 -22z"/>
<path d="M504 789 c10 -33 14 -52 15 -64 1 -5 10 1 20 14 15 20 19 21 24 7 4
-9 10 -16 15 -16 12 0 32 69 22 75 -4 3 -11 -7 -15 -23 l-7 -27 -13 25 c-12
22 -14 23 -20 8 -9 -22 -25 -24 -25 -4 0 8 -5 18 -12 22 -8 5 -9 0 -4 -17z"/>
<path d="M835 793 c-14 -13 -18 -14 -25 -2 -18 27 -17 3 1 -36 10 -23 18 -32
18 -22 1 10 8 31 16 47 17 34 14 38 -10 13z"/>
<path d="M896 794 c-25 -25 -18 -54 16 -67 38 -14 69 44 35 68 -27 19 -32 19
-51 -1z m47 -18 c8 -20 -20 -43 -35 -28 -14 14 -3 42 16 42 7 0 16 -6 19 -14z"/>
<path d="M1000 773 c0 -42 11 -53 41 -45 19 4 30 54 17 74 -4 7 -8 10 -9 6 -1
-8 -5 -34 -8 -59 -2 -22 -24 -2 -27 25 -5 45 -14 43 -14 -1z"/>
<path d="M1107 803 c-11 -10 -8 -73 3 -73 6 0 10 5 10 12 0 9 3 9 12 0 19 -19
24 -15 23 18 0 36 -30 62 -48 43z m33 -23 c0 -5 -4 -10 -10 -10 -5 0 -10 5
-10 10 0 6 5 10 10 10 6 0 10 -4 10 -10z"/>
<path d="M1250 795 c-14 -16 -6 -35 16 -35 8 0 14 -5 14 -11 0 -6 -9 -8 -22
-4 -22 6 -22 5 -5 -9 21 -16 47 -11 47 9 0 7 -10 20 -22 29 l-23 17 23 -6 c25
-7 31 10 6 19 -21 8 -20 8 -34 -9z"/>
<path d="M1339 804 c0 -5 -2 -20 -3 -34 -4 -31 22 -52 46 -39 12 7 18 22 18
45 0 21 -4 33 -10 29 -6 -4 -10 -12 -9 -18 4 -30 -2 -48 -13 -45 -7 3 -13 17
-14 32 -1 25 -13 50 -15 30z"/>
<path d="M1490 799 c0 -5 5 -9 10 -9 6 0 10 -13 10 -30 0 -16 5 -30 10 -30 6
0 10 14 10 30 0 17 5 30 10 30 25 0 7 15 -20 16 -16 1 -30 -2 -30 -7z"/>
<path d="M642 766 c-1 -19 2 -37 8 -41 6 -4 10 5 10 22 l0 27 16 -22 c21 -31
31 -27 32 13 1 19 -3 35 -8 35 -6 0 -10 -8 -10 -17 -1 -17 -1 -17 -14 0 -20
26 -32 21 -34 -17z"/>
<path d="M1440 766 c0 -19 4 -37 8 -40 5 -3 9 13 9 34 0 22 -4 40 -9 40 -4 0
-8 -15 -8 -34z"/>
</g>
</svg>
